<?xml version="1.0" encoding="utf-8"?>
<!-- Generator: Adobe Illustrator 16.0.0, SVG Export Plug-In . SVG Version: 6.00 Build 0)  -->
<!DOCTYPE svg PUBLIC "-//W3C//DTD SVG 1.1//EN" "http://www.w3.org/Graphics/SVG/1.1/DTD/svg11.dtd">
<svg version="1.1" id="Layer_1" xmlns="http://www.w3.org/2000/svg" xmlns:xlink="http://www.w3.org/1999/xlink" x="0px" y="0px"
	 width="254.667px" height="254.667px" viewBox="0 0 254.667 254.667" enable-background="new 0 0 254.667 254.667"
	 xml:space="preserve">
<g>
	<defs>
		<rect id="SVGID_1_" width="254.667" height="254.667"/>
	</defs>
	<clipPath id="SVGID_2_">
		<use xlink:href="#SVGID_1_"  overflow="visible"/>
	</clipPath>
	<g clip-path="url(#SVGID_2_)">
		<defs>
			<rect id="SVGID_3_" width="254.667" height="254.667"/>
		</defs>
		<clipPath id="SVGID_4_">
			<use xlink:href="#SVGID_3_"  overflow="visible"/>
		</clipPath>
		
			<circle clip-path="url(#SVGID_4_)" fill="none" stroke="#F0D246" stroke-width="12" stroke-miterlimit="10" cx="127.333" cy="127.333" r="121.334"/>
		<g opacity="0.76" clip-path="url(#SVGID_4_)">
			<g>
				<defs>
					<rect id="SVGID_5_" x="175.159" y="32.355" width="7.657" height="11.023"/>
				</defs>
				<clipPath id="SVGID_6_">
					<use xlink:href="#SVGID_5_"  overflow="visible"/>
				</clipPath>
				<path clip-path="url(#SVGID_6_)" fill="#F0D246" d="M177.097,43.378l5.72-9.903l-1.941-1.121l-5.716,9.899
					C175.812,42.621,176.455,42.997,177.097,43.378"/>
			</g>
		</g>
		<path clip-path="url(#SVGID_4_)" fill="#F0D246" d="M77.789,210.905l-5.94,10.286l1.942,1.124l5.944-10.296
			C79.082,211.655,78.434,211.283,77.789,210.905"/>
		<path clip-path="url(#SVGID_4_)" fill="#F0D246" d="M42.471,175.034l-10.118,5.842l1.12,1.941l10.124-5.844
			C43.214,176.33,42.84,175.685,42.471,175.034"/>
		<g opacity="0.76" clip-path="url(#SVGID_4_)">
			<g>
				<defs>
					<rect id="SVGID_7_" x="211.124" y="71.849" width="11.189" height="7.761"/>
				</defs>
				<clipPath id="SVGID_8_">
					<use xlink:href="#SVGID_7_"  overflow="visible"/>
				</clipPath>
				<path clip-path="url(#SVGID_8_)" fill="#F0D246" d="M212.235,79.61l10.077-5.818l-1.12-1.943l-10.068,5.813
					C211.499,78.307,211.872,78.956,212.235,79.61"/>
			</g>
		</g>
		<path clip-path="url(#SVGID_4_)" fill="#F0D246" d="M29.762,126.98c0-0.256,0.007-0.511,0.01-0.768H18.307v2.242h11.474
			C29.773,127.964,29.762,127.473,29.762,126.98"/>
		<g opacity="0.76" clip-path="url(#SVGID_4_)">
			<g>
				<defs>
					<rect id="SVGID_9_" x="224.548" y="126.212" width="11.813" height="2.242"/>
				</defs>
				<clipPath id="SVGID_10_">
					<use xlink:href="#SVGID_9_"  overflow="visible"/>
				</clipPath>
				<path clip-path="url(#SVGID_10_)" fill="#F0D246" d="M224.559,126.212c0.003,0.256,0.009,0.512,0.009,0.768
					c0,0.492-0.012,0.983-0.02,1.474h11.812v-2.242H224.559z"/>
			</g>
		</g>
		<path clip-path="url(#SVGID_4_)" fill="#F0D246" d="M43.291,77.517l-9.817-5.669l-1.121,1.943l9.823,5.67
			C42.54,78.808,42.912,78.16,43.291,77.517"/>
		<path clip-path="url(#SVGID_4_)" fill="#F0D246" d="M210.814,176.828l10.378,5.989l1.12-1.941l-10.371-5.988
			C211.573,175.54,211.198,176.186,210.814,176.828"/>
		<path clip-path="url(#SVGID_4_)" fill="#F0D246" d="M79.424,42.111l-5.633-9.758l-1.943,1.121l5.634,9.757
			C78.126,42.853,78.773,42.478,79.424,42.111"/>
		<path clip-path="url(#SVGID_4_)" fill="#F0D246" d="M174.851,211.877l6.024,10.438l1.941-1.124l-6.023-10.434
			C176.147,211.14,175.502,211.514,174.851,211.877"/>
		<g opacity="0.76" clip-path="url(#SVGID_4_)">
			<g>
				<defs>
					<rect id="SVGID_11_" x="126.211" y="18.307" width="2.241" height="11.287"/>
				</defs>
				<clipPath id="SVGID_12_">
					<use xlink:href="#SVGID_11_"  overflow="visible"/>
				</clipPath>
				<path clip-path="url(#SVGID_12_)" fill="#F0D246" d="M127.165,29.578c0.43,0,0.857,0.01,1.287,0.016V18.307h-2.241v11.283
					C126.527,29.587,126.846,29.578,127.165,29.578"/>
			</g>
		</g>
		<path clip-path="url(#SVGID_4_)" fill="#F0D246" d="M127.165,224.383c-0.319,0-0.638-0.009-0.954-0.012v11.99h2.241v-11.994
			C128.022,224.374,127.595,224.383,127.165,224.383"/>
		<path clip-path="url(#SVGID_4_)" fill="#F0D246" d="M116.268,229.745l-0.626,5.952l0.599,0.059l0.626-5.943
			C116.665,229.793,116.467,229.765,116.268,229.745"/>
		<g opacity="0.76" clip-path="url(#SVGID_4_)">
			<g>
				<defs>
					<rect id="SVGID_13_" x="137.8" y="18.911" width="1.226" height="6.01"/>
				</defs>
				<clipPath id="SVGID_14_">
					<use xlink:href="#SVGID_13_"  overflow="visible"/>
				</clipPath>
				<path clip-path="url(#SVGID_14_)" fill="#F0D246" d="M138.398,24.921l0.626-5.947l-0.599-0.062l-0.626,5.941
					C138.001,24.874,138.199,24.9,138.398,24.921"/>
			</g>
		</g>
		<g opacity="0.76" clip-path="url(#SVGID_4_)">
			<g>
				<defs>
					<rect id="SVGID_15_" x="148.45" y="20.664" width="1.841" height="5.988"/>
				</defs>
				<clipPath id="SVGID_16_">
					<use xlink:href="#SVGID_15_"  overflow="visible"/>
				</clipPath>
				<path clip-path="url(#SVGID_16_)" fill="#F0D246" d="M149.041,26.652l1.25-5.862l-0.593-0.126l-1.248,5.861
					C148.647,26.568,148.847,26.61,149.041,26.652"/>
			</g>
		</g>
		<path clip-path="url(#SVGID_4_)" fill="#F0D246" d="M105.625,228.015l-1.246,5.865l0.59,0.125l1.247-5.865
			C106.02,228.098,105.822,228.057,105.625,228.015"/>
		<g opacity="0.76" clip-path="url(#SVGID_4_)">
			<g>
				<defs>
					<rect id="SVGID_17_" x="158.869" y="23.586" width="2.43" height="5.891"/>
				</defs>
				<clipPath id="SVGID_18_">
					<use xlink:href="#SVGID_17_"  overflow="visible"/>
				</clipPath>
				<path clip-path="url(#SVGID_18_)" fill="#F0D246" d="M159.444,29.477l1.854-5.704l-0.574-0.187l-1.856,5.708
					C159.062,29.357,159.253,29.414,159.444,29.477"/>
			</g>
		</g>
		<path clip-path="url(#SVGID_4_)" fill="#F0D246" d="M95.222,225.188l-1.853,5.709l0.573,0.184l1.855-5.711
			C95.607,225.309,95.414,225.252,95.222,225.188"/>
		<g opacity="0.76" clip-path="url(#SVGID_4_)">
			<g>
				<defs>
					<rect id="SVGID_19_" x="168.945" y="27.645" width="2.991" height="5.729"/>
				</defs>
				<clipPath id="SVGID_20_">
					<use xlink:href="#SVGID_19_"  overflow="visible"/>
				</clipPath>
				<path clip-path="url(#SVGID_20_)" fill="#F0D246" d="M169.497,33.374l2.44-5.483l-0.551-0.246l-2.442,5.481
					C169.132,33.207,169.314,33.292,169.497,33.374"/>
			</g>
		</g>
		<path clip-path="url(#SVGID_4_)" fill="#F0D246" d="M85.172,221.291l-2.444,5.486l0.552,0.246l2.442-5.486
			C85.537,221.459,85.356,221.374,85.172,221.291"/>
		<g opacity="0.76" clip-path="url(#SVGID_4_)">
			<g>
				<defs>
					<rect id="SVGID_21_" x="187.632" y="38.982" width="4.008" height="5.195"/>
				</defs>
				<clipPath id="SVGID_22_">
					<use xlink:href="#SVGID_21_"  overflow="visible"/>
				</clipPath>
				<path clip-path="url(#SVGID_22_)" fill="#F0D246" d="M188.122,44.177l3.519-4.839l-0.489-0.356l-3.52,4.843
					C187.797,43.943,187.96,44.059,188.122,44.177"/>
			</g>
		</g>
		<path clip-path="url(#SVGID_4_)" fill="#F0D246" d="M66.547,210.487l-3.52,4.844l0.489,0.356l3.523-4.848
			C66.875,210.723,66.711,210.605,66.547,210.487"/>
		<g opacity="0.76" clip-path="url(#SVGID_4_)">
			<g>
				<defs>
					<rect id="SVGID_23_" x="196.04" y="46.138" width="4.445" height="4.838"/>
				</defs>
				<clipPath id="SVGID_24_">
					<use xlink:href="#SVGID_23_"  overflow="visible"/>
				</clipPath>
				<path clip-path="url(#SVGID_24_)" fill="#F0D246" d="M196.493,50.976l3.991-4.434l-0.448-0.404l-3.996,4.438
					C196.192,50.71,196.344,50.839,196.493,50.976"/>
			</g>
		</g>
		<path clip-path="url(#SVGID_4_)" fill="#F0D246" d="M58.178,203.689l-3.996,4.438l0.448,0.404l4-4.443
			C58.481,203.953,58.327,203.825,58.178,203.689"/>
		<g opacity="0.76" clip-path="url(#SVGID_4_)">
			<g>
				<defs>
					<rect id="SVGID_25_" x="203.693" y="54.182" width="4.837" height="4.445"/>
				</defs>
				<clipPath id="SVGID_26_">
					<use xlink:href="#SVGID_25_"  overflow="visible"/>
				</clipPath>
				<path clip-path="url(#SVGID_26_)" fill="#F0D246" d="M204.093,58.627l4.438-3.996l-0.406-0.448l-4.431,3.992
					C203.826,58.323,203.956,58.477,204.093,58.627"/>
			</g>
		</g>
		<path clip-path="url(#SVGID_4_)" fill="#F0D246" d="M50.581,196.039l-4.443,4l0.404,0.447l4.438-3.996
			C50.844,196.343,50.715,196.188,50.581,196.039"/>
		<g opacity="0.76" clip-path="url(#SVGID_4_)">
			<g>
				<defs>
					<rect id="SVGID_27_" x="210.491" y="63.029" width="5.191" height="4.006"/>
				</defs>
				<clipPath id="SVGID_28_">
					<use xlink:href="#SVGID_27_"  overflow="visible"/>
				</clipPath>
				<path clip-path="url(#SVGID_28_)" fill="#F0D246" d="M210.845,67.035l4.839-3.518l-0.355-0.489l-4.837,3.515
					C210.607,66.707,210.726,66.872,210.845,67.035"/>
			</g>
		</g>
		<path clip-path="url(#SVGID_4_)" fill="#F0D246" d="M43.83,187.63l-4.847,3.523l0.355,0.489l4.845-3.521
			C44.063,187.959,43.948,187.794,43.83,187.63"/>
		<g opacity="0.76" clip-path="url(#SVGID_4_)">
			<g>
				<defs>
					<rect id="SVGID_29_" x="221.294" y="82.729" width="5.729" height="2.991"/>
				</defs>
				<clipPath id="SVGID_30_">
					<use xlink:href="#SVGID_29_"  overflow="visible"/>
				</clipPath>
				<path clip-path="url(#SVGID_30_)" fill="#F0D246" d="M221.542,85.72l5.481-2.439l-0.247-0.551l-5.482,2.439
					C221.378,85.354,221.461,85.536,221.542,85.72"/>
			</g>
		</g>
		<path clip-path="url(#SVGID_4_)" fill="#F0D246" d="M33.13,168.947l-5.486,2.442l0.247,0.551l5.488-2.442
			C33.297,169.313,33.211,169.13,33.13,168.947"/>
		<g opacity="0.76" clip-path="url(#SVGID_4_)">
			<g>
				<defs>
					<rect id="SVGID_31_" x="225.191" y="93.368" width="5.89" height="2.429"/>
				</defs>
				<clipPath id="SVGID_32_">
					<use xlink:href="#SVGID_31_"  overflow="visible"/>
				</clipPath>
				<path clip-path="url(#SVGID_32_)" fill="#F0D246" d="M225.374,95.797l5.707-1.854l-0.188-0.575l-5.702,1.853
					C225.254,95.412,225.311,95.606,225.374,95.797"/>
			</g>
		</g>
		<path clip-path="url(#SVGID_4_)" fill="#F0D246" d="M29.299,158.871l-5.713,1.856l0.187,0.573l5.709-1.853
			C29.419,159.257,29.362,159.062,29.299,158.871"/>
		<g opacity="0.76" clip-path="url(#SVGID_4_)">
			<g>
				<defs>
					<rect id="SVGID_33_" x="228.016" y="104.379" width="5.989" height="1.836"/>
				</defs>
				<clipPath id="SVGID_34_">
					<use xlink:href="#SVGID_33_"  overflow="visible"/>
				</clipPath>
				<path clip-path="url(#SVGID_34_)" fill="#F0D246" d="M228.144,106.215l5.861-1.244l-0.127-0.592l-5.861,1.246
					C228.061,105.822,228.103,106.019,228.144,106.215"/>
			</g>
		</g>
		<path clip-path="url(#SVGID_4_)" fill="#F0D246" d="M26.529,148.453l-5.866,1.247l0.126,0.591l5.866-1.246
			C26.613,148.847,26.571,148.649,26.529,148.453"/>
		<g opacity="0.76" clip-path="url(#SVGID_4_)">
			<g>
				<defs>
					<rect id="SVGID_35_" x="229.748" y="115.642" width="6.008" height="1.224"/>
				</defs>
				<clipPath id="SVGID_36_">
					<use xlink:href="#SVGID_35_"  overflow="visible"/>
				</clipPath>
				<path clip-path="url(#SVGID_36_)" fill="#F0D246" d="M229.816,116.866l5.939-0.624l-0.063-0.601l-5.943,0.625
					C229.771,116.466,229.799,116.666,229.816,116.866"/>
			</g>
		</g>
		<path clip-path="url(#SVGID_4_)" fill="#F0D246" d="M24.858,137.803l-5.947,0.624l0.063,0.602l5.951-0.626
			C24.903,138.202,24.879,138.003,24.858,137.803"/>
		<path clip-path="url(#SVGID_4_)" fill="#F0D246" d="M24.925,116.271l-5.951-0.627l-0.063,0.6l5.946,0.626
			C24.878,116.668,24.902,116.468,24.925,116.271"/>
		<path clip-path="url(#SVGID_4_)" fill="#F0D246" d="M229.816,137.803c-0.023,0.2-0.048,0.399-0.069,0.6l5.945,0.625l0.063-0.601
			L229.816,137.803z"/>
		<path clip-path="url(#SVGID_4_)" fill="#F0D246" d="M26.655,105.626l-5.866-1.246l-0.126,0.591l5.866,1.246
			C26.57,106.021,26.613,105.823,26.655,105.626"/>
		<path clip-path="url(#SVGID_4_)" fill="#F0D246" d="M228.144,148.454c-0.044,0.196-0.083,0.394-0.127,0.591l5.861,1.246
			l0.127-0.593L228.144,148.454z"/>
		<path clip-path="url(#SVGID_4_)" fill="#F0D246" d="M225.373,158.873c-0.063,0.19-0.122,0.384-0.184,0.575l5.704,1.852
			l0.188-0.573L225.373,158.873z"/>
		<path clip-path="url(#SVGID_4_)" fill="#F0D246" d="M29.481,95.225l-5.708-1.855l-0.187,0.574l5.712,1.854
			C29.36,95.607,29.419,95.416,29.481,95.225"/>
		<path clip-path="url(#SVGID_4_)" fill="#F0D246" d="M221.293,169.499l5.483,2.442l0.247-0.553l-5.483-2.44
			C221.46,169.132,221.374,169.315,221.293,169.499"/>
		<path clip-path="url(#SVGID_4_)" fill="#F0D246" d="M33.378,85.173l-5.487-2.443l-0.247,0.552l5.485,2.442
			C33.209,85.539,33.295,85.357,33.378,85.173"/>
		<path clip-path="url(#SVGID_4_)" fill="#F0D246" d="M44.181,66.548l-4.843-3.519l-0.355,0.489l4.844,3.52
			C43.945,66.875,44.063,66.71,44.181,66.548"/>
		<path clip-path="url(#SVGID_4_)" fill="#F0D246" d="M210.491,188.125l4.837,3.517l0.355-0.489l-4.841-3.518
			C210.724,187.797,210.607,187.962,210.491,188.125"/>
		<path clip-path="url(#SVGID_4_)" fill="#F0D246" d="M50.977,58.178l-4.436-3.994l-0.403,0.448l4.44,3.998
			C50.711,58.481,50.842,58.327,50.977,58.178"/>
		<path clip-path="url(#SVGID_4_)" fill="#F0D246" d="M203.691,196.494l4.433,3.992l0.406-0.447l-4.438-3.998
			C203.955,196.191,203.825,196.345,203.691,196.494"/>
		<path clip-path="url(#SVGID_4_)" fill="#F0D246" d="M58.628,50.58l-3.998-4.44l-0.448,0.403l3.993,4.437
			C58.325,50.844,58.478,50.714,58.628,50.58"/>
		<path clip-path="url(#SVGID_4_)" fill="#F0D246" d="M196.039,204.091l3.996,4.439l0.449-0.403l-3.992-4.435
			C196.342,203.829,196.188,203.958,196.039,204.091"/>
		<path clip-path="url(#SVGID_4_)" fill="#F0D246" d="M67.036,43.829l-3.52-4.844l-0.489,0.355l3.519,4.841
			C66.709,44.063,66.872,43.947,67.036,43.829"/>
		<path clip-path="url(#SVGID_4_)" fill="#F0D246" d="M187.63,210.843l3.522,4.844l0.487-0.355l-3.518-4.843
			C187.958,210.607,187.795,210.726,187.63,210.843"/>
		<path clip-path="url(#SVGID_4_)" fill="#F0D246" d="M85.719,33.129l-2.44-5.482l-0.551,0.247l2.442,5.483
			C85.353,33.295,85.535,33.21,85.719,33.129"/>
		<path clip-path="url(#SVGID_4_)" fill="#F0D246" d="M168.944,221.542l2.442,5.481l0.55-0.246l-2.44-5.484
			C169.313,221.375,169.128,221.459,168.944,221.542"/>
		<path clip-path="url(#SVGID_4_)" fill="#F0D246" d="M95.796,29.297l-1.856-5.708l-0.573,0.186l1.853,5.705
			C95.412,29.418,95.604,29.359,95.796,29.297"/>
		<path clip-path="url(#SVGID_4_)" fill="#F0D246" d="M158.869,225.371l1.854,5.711l0.575-0.187l-1.854-5.708
			C159.253,225.251,159.062,225.31,158.869,225.371"/>
		<path clip-path="url(#SVGID_4_)" fill="#F0D246" d="M106.214,26.527l-1.245-5.861l-0.592,0.125l1.246,5.861
			C105.82,26.61,106.017,26.567,106.214,26.527"/>
		<path clip-path="url(#SVGID_4_)" fill="#F0D246" d="M148.449,228.14l1.248,5.865l0.594-0.126l-1.25-5.864
			C148.847,228.057,148.647,228.099,148.449,228.14"/>
		<path clip-path="url(#SVGID_4_)" fill="#F0D246" d="M116.864,24.854l-0.625-5.941l-0.599,0.064l0.625,5.946
			C116.465,24.9,116.663,24.875,116.864,24.854"/>
		<path clip-path="url(#SVGID_4_)" fill="#F0D246" d="M137.8,229.814l0.626,5.941l0.6-0.059l-0.626-5.951
			C138.199,229.766,138.001,229.793,137.8,229.814"/>
		
			<rect x="77.533" y="98.868" transform="matrix(0.2149 0.9766 -0.9766 0.2149 193.5207 -39.8298)" clip-path="url(#SVGID_4_)" fill="#353535" width="88.002" height="3.169"/>
		
			<rect x="163.386" y="68.753" transform="matrix(0.2108 0.9775 -0.9775 0.2108 248.5622 -65.7014)" clip-path="url(#SVGID_4_)" fill="#353535" width="3.169" height="104.668"/>
		<path clip-path="url(#SVGID_4_)" fill="#353535" d="M127.402,137c-3.969,0-7.197-3.228-7.197-7.197
			c0-3.969,3.228-7.198,7.197-7.198c3.969,0,7.196,3.229,7.196,7.198C134.599,133.772,131.371,137,127.402,137"/>
		<path clip-path="url(#SVGID_4_)" fill="#FFFFFF" d="M131.312,129.803c0,2.159-1.75,3.91-3.909,3.91c-2.16,0-3.91-1.751-3.91-3.91
			c0-2.159,1.75-3.909,3.91-3.909C129.562,125.894,131.312,127.644,131.312,129.803"/>
		<polygon clip-path="url(#SVGID_4_)" fill="#FFFFFF" points="118.97,151.094 115.335,149.271 126.46,129.848 146.531,89.805 
			147.949,90.515 127.913,130.484 		"/>
	</g>
</g>
</svg>
