<?xml version="1.0" encoding="utf-8"?>
<!-- Generator: Adobe Illustrator 16.0.0, SVG Export Plug-In . SVG Version: 6.00 Build 0)  -->
<!DOCTYPE svg PUBLIC "-//W3C//DTD SVG 1.0//EN" "http://www.w3.org/TR/2001/REC-SVG-20010904/DTD/svg10.dtd">
<svg version="1.0" id="Layer_1" xmlns="http://www.w3.org/2000/svg" xmlns:xlink="http://www.w3.org/1999/xlink" x="0px" y="0px"
	 width="37.42px" height="93.96px" viewBox="0 0 37.42 93.96" enable-background="new 0 0 37.42 93.96" xml:space="preserve">
<rect x="-32.467" y="41.867" transform="matrix(0.2149 0.9766 -0.9766 0.2149 51.4919 22.8495)" fill="#353635" width="88.002" height="3.169"/>
<path fill="#353635" d="M17.402,80c-3.969,0-7.197-3.229-7.197-7.197s3.228-7.198,7.197-7.198c3.969,0,7.196,3.229,7.196,7.198
	S21.371,80,17.402,80"/>
<path fill="#FFFFFF" d="M21.312,72.803c0,2.158-1.75,3.91-3.909,3.91c-2.16,0-3.91-1.752-3.91-3.91c0-2.159,1.75-3.909,3.91-3.909
	C19.562,68.894,21.312,70.644,21.312,72.803"/>
<polygon fill="#FFFFFF" points="8.97,94.094 5.335,92.27 16.46,72.848 36.531,32.805 37.949,33.515 17.913,73.484 "/>
</svg>
